<svg width="1200" height="630" viewBox="0 0 1200 630" fill="none" xmlns="http://www.w3.org/2000/svg">
  <style>
    .bg  { fill: var(--brand-500); }
    .ico { stroke: var(--brand-100); stroke-width: 1.6; stroke-linecap: round; stroke-linejoin: round; fill: none; }
    .txt { fill: var(--brand-50); font-family: 'Outfit Variable', Outfit, system-ui, -apple-system, sans-serif; font-weight: 800; }
    .ln  { stroke: var(--brand-300); stroke-width: 1; stroke-opacity: 0.35; }
    .pil { fill: var(--brand-400); fill-opacity: 0.25; stroke: var(--brand-200); stroke-opacity: 0.4; stroke-width: 1; }
    .ptx { fill: var(--brand-100); font-family: 'Outfit Variable', Outfit, system-ui, -apple-system, sans-serif; }
    .cor { stroke: var(--brand-300); stroke-width: 1.5; fill: none; stroke-opacity: 0.45; }
  </style>
  <rect width="1200" height="630" class="bg"/>
  <!-- Lucide Droplet -->
  <g transform="translate(540, 205) scale(5)" class="ico" opacity="0.9">
    <path d="M12 22a7 7 0 0 0 7-7c0-2-1-3.9-3-5.5s-3.5-4-4-6.5c-.5 2.5-2 4.9-4 6.5C6 11.1 5 13 5 15a7 7 0 0 0 7 7z"/>
  </g>
  <text x="600" y="435" font-size="100" text-anchor="middle" letter-spacing="-3" class="txt">color tokens</text>
  <path d="M 36 60 L 36 36 L 60 36" class="cor"/>
  <path d="M 1140 36 L 1164 36 L 1164 60" class="cor"/>
  <path d="M 36 570 L 36 594 L 60 594" class="cor"/>
  <path d="M 1140 594 L 1164 594 L 1164 570" class="cor"/>
</svg>
